<svg width="1024" height="1024" viewBox="0 0 1024 1024" fill="none" xmlns="http://www.w3.org/2000/svg">
  <defs>
    <linearGradient id="bg" x1="0" y1="0" x2="0" y2="1024" gradientUnits="userSpaceOnUse">
      <stop stop-color="#120827" />
      <stop offset="1" stop-color="#0A0F2E" />
    </linearGradient>
    <linearGradient id="brick" x1="0" y1="220" x2="1024" y2="820" gradientUnits="userSpaceOnUse">
      <stop stop-color="#1A2450" />
      <stop offset="0.5" stop-color="#13295B" />
      <stop offset="1" stop-color="#1F3B74" />
    </linearGradient>
    <filter id="glow" x="-40%" y="-40%" width="180%" height="180%">
      <feGaussianBlur stdDeviation="10" result="blur" />
      <feMerge>
        <feMergeNode in="blur" />
        <feMergeNode in="SourceGraphic" />
      </feMerge>
    </filter>
    <linearGradient id="neonBlue" x1="240" y1="230" x2="780" y2="700" gradientUnits="userSpaceOnUse">
      <stop stop-color="#1FCBFF" />
      <stop offset="1" stop-color="#8DEBFF" />
    </linearGradient>
    <linearGradient id="neonWhite" x1="260" y1="180" x2="760" y2="840" gradientUnits="userSpaceOnUse">
      <stop stop-color="#F7FBFF" />
      <stop offset="1" stop-color="#D2E4FF" />
    </linearGradient>
    <linearGradient id="neonPink" x1="360" y1="570" x2="700" y2="760" gradientUnits="userSpaceOnUse">
      <stop stop-color="#FF6E8F" />
      <stop offset="1" stop-color="#FF9CB0" />
    </linearGradient>
  </defs>

  <rect width="1024" height="1024" fill="url(#bg)"/>
  <rect y="210" width="1024" height="814" fill="url(#brick)"/>

  <g opacity="0.35">
    <path d="M0 270H1024" stroke="#2C4F90" stroke-width="16"/>
    <path d="M0 360H1024" stroke="#27467E" stroke-width="16"/>
    <path d="M0 450H1024" stroke="#2C4F90" stroke-width="16"/>
    <path d="M0 540H1024" stroke="#27467E" stroke-width="16"/>
    <path d="M0 630H1024" stroke="#2C4F90" stroke-width="16"/>
    <path d="M0 720H1024" stroke="#27467E" stroke-width="16"/>
    <path d="M0 810H1024" stroke="#2C4F90" stroke-width="16"/>
  </g>
  <g opacity="0.28">
    <path d="M128 210V1024" stroke="#27467E" stroke-width="14"/>
    <path d="M384 210V1024" stroke="#27467E" stroke-width="14"/>
    <path d="M640 210V1024" stroke="#27467E" stroke-width="14"/>
    <path d="M896 210V1024" stroke="#27467E" stroke-width="14"/>
  </g>

  <circle cx="512" cy="468" r="270" stroke="url(#neonWhite)" stroke-width="20" filter="url(#glow)" opacity="0.95"/>

  <circle cx="416" cy="395" r="52" stroke="url(#neonBlue)" stroke-width="16" filter="url(#glow)"/>
  <circle cx="590" cy="395" r="52" stroke="url(#neonBlue)" stroke-width="16" filter="url(#glow)"/>
  <circle cx="416" cy="395" r="26" stroke="url(#neonBlue)" stroke-width="10" opacity="0.8"/>
  <circle cx="590" cy="395" r="26" stroke="url(#neonBlue)" stroke-width="10" opacity="0.8"/>

  <rect x="318" y="470" width="388" height="206" rx="22" fill="none" stroke="url(#neonWhite)" stroke-width="20" filter="url(#glow)"/>
  <path d="M340 520L420 470V676L340 626V520Z" fill="none" stroke="url(#neonWhite)" stroke-width="18" filter="url(#glow)"/>
  <path d="M704 520L624 470V676L704 626V520Z" fill="none" stroke="url(#neonWhite)" stroke-width="18" filter="url(#glow)"/>

  <rect x="404" y="530" width="86" height="72" rx="10" fill="none" stroke="url(#neonBlue)" stroke-width="12" filter="url(#glow)"/>
  <rect x="486" y="530" width="86" height="72" rx="10" fill="none" stroke="url(#neonPink)" stroke-width="12" filter="url(#glow)"/>
  <path d="M448 560L469 581L506 544" stroke="url(#neonWhite)" stroke-width="14" stroke-linecap="round" stroke-linejoin="round" filter="url(#glow)"/>

  <path d="M290 430C290 335 366 260 460 260" stroke="url(#neonBlue)" stroke-width="18" stroke-linecap="round" filter="url(#glow)"/>
  <path d="M734 430C734 335 658 260 564 260" stroke="url(#neonBlue)" stroke-width="18" stroke-linecap="round" filter="url(#glow)"/>

  <text x="512" y="782" text-anchor="middle" font-family="Arial, Helvetica, sans-serif" font-size="96" font-weight="700" fill="url(#neonWhite)" filter="url(#glow)">MOVIE</text>
  <text x="512" y="860" text-anchor="middle" font-family="Brush Script MT, Segoe Script, cursive" font-size="96" fill="url(#neonBlue)" filter="url(#glow)">time</text>

  <circle cx="190" cy="538" r="22" fill="none" stroke="url(#neonBlue)" stroke-width="10" filter="url(#glow)"/>
  <circle cx="794" cy="540" r="26" fill="none" stroke="url(#neonWhite)" stroke-width="10" filter="url(#glow)"/>
</svg>
